<svg viewBox="0 0 24 24" fill="none" stroke="currentColor" stroke-width="2" stroke-linecap="round" stroke-linejoin="round"><circle cx="12" cy="12" r="3"/><path d="M12 2a3 3 0 0 0-3 3 3 3 0 0 0 3 3"/><path d="M22 12a3 3 0 0 0-3-3 3 3 0 0 0-3 3"/><path d="M12 22a3 3 0 0 0 3-3 3 3 0 0 0-3-3"/><path d="M2 12a3 3 0 0 0 3 3 3 3 0 0 0 3-3"/><path d="M6.34 6.34a3 3 0 0 0 0 4.24 3 3 0 0 0 4.24 0"/><path d="M17.66 6.34a3 3 0 0 0-4.24 0 3 3 0 0 0 0 4.24"/><path d="M17.66 17.66a3 3 0 0 0 0-4.24 3 3 0 0 0-4.24 0"/><path d="M6.34 17.66a3 3 0 0 0 4.24 0 3 3 0 0 0 0-4.24"/></svg>